<svg xmlns="http://www.w3.org/2000/svg" xmlns:xlink="http://www.w3.org/1999/xlink" width="117" zoomAndPan="magnify" viewBox="0 0 87.75 30.000001" height="40" preserveAspectRatio="xMidYMid meet" version="1.0"><defs><g/><clipPath id="52df7ac070"><path d="M 1.292969 5 L 10 5 L 10 19 L 1.292969 19 Z M 1.292969 5 " clip-rule="nonzero"/></clipPath><clipPath id="7031294917"><path d="M 81.09375 3.847656 L 86.175781 3.847656 L 86.175781 8.925781 L 81.09375 8.925781 Z M 81.09375 3.847656 " clip-rule="nonzero"/></clipPath><clipPath id="4e496e846b"><path d="M 14 18 L 42 18 L 42 28 L 14 28 Z M 14 18 " clip-rule="nonzero"/></clipPath><clipPath id="cf2e699180"><path d="M 13.621094 19.015625 L 27.058594 4.75 L 42.90625 19.679688 L 29.472656 33.945312 Z M 13.621094 19.015625 " clip-rule="nonzero"/></clipPath><clipPath id="d636381d0f"><path d="M 13.621094 19.015625 L 27.058594 4.75 L 42.90625 19.679688 L 29.472656 33.945312 Z M 13.621094 19.015625 " clip-rule="nonzero"/></clipPath></defs><g clip-path="url(#52df7ac070)"><g fill="#311c73" fill-opacity="1"><g transform="translate(0.45196, 18.243327)"><g><path d="M 8.128906 -7.101562 C 8.246094 -7.214844 8.339844 -7.34375 8.402344 -7.488281 C 8.464844 -7.632812 8.496094 -7.78125 8.496094 -7.9375 C 8.496094 -8.089844 8.464844 -8.242188 8.40625 -8.390625 C 8.347656 -8.539062 8.257812 -8.671875 8.140625 -8.789062 L 8.140625 -8.800781 C 8.019531 -8.917969 7.890625 -9.011719 7.75 -9.078125 C 7.605469 -9.144531 7.460938 -9.179688 7.3125 -9.1875 C 7.164062 -9.191406 7.019531 -9.167969 6.875 -9.113281 C 6.730469 -9.054688 6.597656 -8.96875 6.480469 -8.851562 L 3.4375 -5.847656 L 3.4375 -11.449219 C 3.4375 -11.613281 3.40625 -11.769531 3.34375 -11.917969 C 3.28125 -12.066406 3.195312 -12.191406 3.085938 -12.296875 C 2.976562 -12.402344 2.847656 -12.484375 2.703125 -12.550781 C 2.554688 -12.613281 2.398438 -12.644531 2.230469 -12.644531 C 2.0625 -12.644531 1.902344 -12.613281 1.753906 -12.550781 C 1.605469 -12.484375 1.472656 -12.402344 1.359375 -12.296875 C 1.242188 -12.191406 1.152344 -12.066406 1.085938 -11.917969 C 1.019531 -11.769531 0.988281 -11.613281 0.988281 -11.449219 L 0.988281 -1.195312 C 0.988281 -1.023438 1.019531 -0.867188 1.085938 -0.722656 C 1.152344 -0.574219 1.242188 -0.449219 1.359375 -0.34375 C 1.472656 -0.242188 1.605469 -0.15625 1.753906 -0.09375 C 1.902344 -0.03125 2.0625 0 2.230469 0 C 2.398438 0 2.550781 -0.03125 2.695312 -0.09375 C 2.839844 -0.15625 2.96875 -0.242188 3.078125 -0.34375 C 3.183594 -0.449219 3.269531 -0.574219 3.332031 -0.722656 C 3.394531 -0.867188 3.425781 -1.023438 3.425781 -1.195312 L 3.425781 -2.636719 L 4.425781 -3.585938 L 6.421875 -0.554688 C 6.503906 -0.414062 6.617188 -0.300781 6.75 -0.210938 C 6.886719 -0.125 7.027344 -0.0625 7.179688 -0.03125 C 7.332031 0.00390625 7.488281 0.00390625 7.644531 -0.0234375 C 7.804688 -0.0546875 7.949219 -0.113281 8.089844 -0.207031 C 8.226562 -0.292969 8.34375 -0.402344 8.433594 -0.539062 C 8.527344 -0.671875 8.589844 -0.816406 8.621094 -0.972656 C 8.65625 -1.128906 8.660156 -1.285156 8.632812 -1.445312 C 8.605469 -1.609375 8.542969 -1.761719 8.445312 -1.90625 L 6.242188 -5.304688 Z M 8.128906 -7.101562 "/></g></g></g></g><g fill="#311c73" fill-opacity="1"><g transform="translate(9.795476, 18.243327)"><g><path d="M 3.4375 -11.4375 C 3.4375 -11.609375 3.40625 -11.765625 3.34375 -11.910156 C 3.28125 -12.058594 3.195312 -12.183594 3.082031 -12.292969 C 2.96875 -12.402344 2.839844 -12.484375 2.691406 -12.550781 C 2.542969 -12.613281 2.382812 -12.644531 2.210938 -12.644531 C 2.042969 -12.644531 1.882812 -12.613281 1.734375 -12.550781 C 1.585938 -12.484375 1.457031 -12.402344 1.34375 -12.292969 C 1.230469 -12.183594 1.144531 -12.058594 1.082031 -11.910156 C 1.019531 -11.765625 0.988281 -11.609375 0.988281 -11.4375 L 0.988281 -1.203125 C 0.988281 -1.035156 1.019531 -0.875 1.082031 -0.730469 C 1.144531 -0.585938 1.230469 -0.460938 1.34375 -0.351562 C 1.457031 -0.242188 1.585938 -0.15625 1.734375 -0.09375 C 1.882812 -0.03125 2.042969 0 2.210938 0 C 2.382812 0 2.542969 -0.03125 2.691406 -0.09375 C 2.839844 -0.15625 2.96875 -0.242188 3.082031 -0.351562 C 3.195312 -0.460938 3.28125 -0.585938 3.34375 -0.730469 C 3.40625 -0.875 3.4375 -1.035156 3.4375 -1.203125 Z M 3.4375 -11.4375 "/></g></g></g><g fill="#311c73" fill-opacity="1"><g transform="translate(14.220312, 18.243327)"><g><path d="M 0.890625 -11.449219 C 0.890625 -11.269531 0.921875 -11.101562 0.992188 -10.9375 C 1.0625 -10.777344 1.15625 -10.636719 1.273438 -10.519531 C 1.394531 -10.402344 1.53125 -10.308594 1.695312 -10.238281 C 1.855469 -10.167969 2.023438 -10.132812 2.203125 -10.132812 C 2.378906 -10.132812 2.550781 -10.167969 2.710938 -10.238281 C 2.871094 -10.308594 3.015625 -10.402344 3.136719 -10.519531 C 3.257812 -10.636719 3.351562 -10.777344 3.421875 -10.9375 C 3.492188 -11.101562 3.527344 -11.269531 3.527344 -11.449219 C 3.527344 -11.632812 3.492188 -11.804688 3.421875 -11.960938 C 3.351562 -12.121094 3.257812 -12.257812 3.136719 -12.375 C 3.015625 -12.496094 2.871094 -12.589844 2.710938 -12.65625 C 2.550781 -12.726562 2.378906 -12.761719 2.203125 -12.761719 C 2.023438 -12.761719 1.855469 -12.726562 1.695312 -12.65625 C 1.53125 -12.589844 1.394531 -12.496094 1.273438 -12.375 C 1.15625 -12.257812 1.0625 -12.121094 0.992188 -11.960938 C 0.921875 -11.804688 0.890625 -11.632812 0.890625 -11.449219 Z M 3.4375 -8.097656 C 3.4375 -8.265625 3.40625 -8.421875 3.34375 -8.570312 C 3.28125 -8.714844 3.195312 -8.847656 3.089844 -8.957031 C 2.984375 -9.070312 2.859375 -9.15625 2.710938 -9.21875 C 2.5625 -9.28125 2.40625 -9.3125 2.242188 -9.3125 C 2.070312 -9.3125 1.90625 -9.28125 1.753906 -9.21875 C 1.597656 -9.15625 1.464844 -9.070312 1.351562 -8.957031 C 1.242188 -8.847656 1.152344 -8.714844 1.085938 -8.570312 C 1.019531 -8.421875 0.988281 -8.265625 0.988281 -8.097656 L 0.988281 -1.214844 C 0.988281 -1.042969 1.019531 -0.886719 1.085938 -0.742188 C 1.152344 -0.597656 1.242188 -0.46875 1.351562 -0.355469 C 1.464844 -0.242188 1.59375 -0.15625 1.742188 -0.09375 C 1.890625 -0.03125 2.050781 0 2.222656 0 C 2.386719 0 2.542969 -0.03125 2.691406 -0.09375 C 2.839844 -0.15625 2.96875 -0.242188 3.082031 -0.355469 C 3.195312 -0.46875 3.28125 -0.597656 3.34375 -0.742188 C 3.40625 -0.886719 3.4375 -1.042969 3.4375 -1.214844 Z M 3.4375 -8.097656 "/></g></g></g><g fill="#311c73" fill-opacity="1"><g transform="translate(18.645148, 18.243327)"><g><path d="M 8.128906 -7.101562 C 8.246094 -7.214844 8.339844 -7.34375 8.402344 -7.488281 C 8.464844 -7.632812 8.496094 -7.78125 8.496094 -7.9375 C 8.496094 -8.089844 8.464844 -8.242188 8.40625 -8.390625 C 8.347656 -8.539062 8.257812 -8.671875 8.140625 -8.789062 L 8.140625 -8.800781 C 8.019531 -8.917969 7.890625 -9.011719 7.75 -9.078125 C 7.605469 -9.144531 7.460938 -9.179688 7.3125 -9.1875 C 7.164062 -9.191406 7.019531 -9.167969 6.875 -9.113281 C 6.730469 -9.054688 6.597656 -8.96875 6.480469 -8.851562 L 3.4375 -5.847656 L 3.4375 -11.449219 C 3.4375 -11.613281 3.40625 -11.769531 3.34375 -11.917969 C 3.28125 -12.066406 3.195312 -12.191406 3.085938 -12.296875 C 2.976562 -12.402344 2.847656 -12.484375 2.703125 -12.550781 C 2.554688 -12.613281 2.398438 -12.644531 2.230469 -12.644531 C 2.0625 -12.644531 1.902344 -12.613281 1.753906 -12.550781 C 1.605469 -12.484375 1.472656 -12.402344 1.359375 -12.296875 C 1.242188 -12.191406 1.152344 -12.066406 1.085938 -11.917969 C 1.019531 -11.769531 0.988281 -11.613281 0.988281 -11.449219 L 0.988281 -1.195312 C 0.988281 -1.023438 1.019531 -0.867188 1.085938 -0.722656 C 1.152344 -0.574219 1.242188 -0.449219 1.359375 -0.34375 C 1.472656 -0.242188 1.605469 -0.15625 1.753906 -0.09375 C 1.902344 -0.03125 2.0625 0 2.230469 0 C 2.398438 0 2.550781 -0.03125 2.695312 -0.09375 C 2.839844 -0.15625 2.96875 -0.242188 3.078125 -0.34375 C 3.183594 -0.449219 3.269531 -0.574219 3.332031 -0.722656 C 3.394531 -0.867188 3.425781 -1.023438 3.425781 -1.195312 L 3.425781 -2.636719 L 4.425781 -3.585938 L 6.421875 -0.554688 C 6.503906 -0.414062 6.617188 -0.300781 6.75 -0.210938 C 6.886719 -0.125 7.027344 -0.0625 7.179688 -0.03125 C 7.332031 0.00390625 7.488281 0.00390625 7.644531 -0.0234375 C 7.804688 -0.0546875 7.949219 -0.113281 8.089844 -0.207031 C 8.226562 -0.292969 8.34375 -0.402344 8.433594 -0.539062 C 8.527344 -0.671875 8.589844 -0.816406 8.621094 -0.972656 C 8.65625 -1.128906 8.660156 -1.285156 8.632812 -1.445312 C 8.605469 -1.609375 8.542969 -1.761719 8.445312 -1.90625 L 6.242188 -5.304688 Z M 8.128906 -7.101562 "/></g></g></g><g fill="#311c73" fill-opacity="1"><g transform="translate(27.771366, 18.243327)"><g><path d="M 5.007812 -6.835938 C 5.285156 -6.839844 5.550781 -6.8125 5.804688 -6.75 C 6.054688 -6.6875 6.316406 -6.554688 6.589844 -6.351562 C 6.714844 -6.253906 6.847656 -6.15625 6.988281 -6.066406 C 7.128906 -5.972656 7.28125 -5.90625 7.449219 -5.867188 C 7.613281 -5.828125 7.785156 -5.828125 7.964844 -5.867188 C 8.148438 -5.90625 8.335938 -6.011719 8.535156 -6.183594 C 8.664062 -6.300781 8.765625 -6.4375 8.832031 -6.589844 C 8.894531 -6.738281 8.925781 -6.898438 8.917969 -7.066406 C 8.914062 -7.234375 8.871094 -7.40625 8.800781 -7.574219 C 8.726562 -7.746094 8.621094 -7.90625 8.472656 -8.050781 C 8.058594 -8.464844 7.574219 -8.78125 7.011719 -8.996094 C 6.453125 -9.214844 5.859375 -9.324219 5.234375 -9.324219 C 4.570312 -9.324219 3.945312 -9.199219 3.363281 -8.953125 C 2.78125 -8.707031 2.273438 -8.371094 1.835938 -7.941406 C 1.402344 -7.511719 1.058594 -7.007812 0.804688 -6.429688 C 0.550781 -5.851562 0.425781 -5.230469 0.425781 -4.574219 C 0.425781 -3.90625 0.550781 -3.289062 0.804688 -2.722656 C 1.058594 -2.152344 1.402344 -1.65625 1.835938 -1.238281 C 2.273438 -0.820312 2.78125 -0.492188 3.363281 -0.25 C 3.945312 -0.0117188 4.570312 0.109375 5.234375 0.109375 C 5.855469 0.109375 6.445312 0 7.007812 -0.21875 C 7.570312 -0.433594 8.058594 -0.75 8.472656 -1.164062 C 8.621094 -1.308594 8.726562 -1.464844 8.800781 -1.632812 C 8.871094 -1.800781 8.910156 -1.96875 8.914062 -2.136719 C 8.917969 -2.304688 8.886719 -2.464844 8.824219 -2.617188 C 8.761719 -2.769531 8.664062 -2.902344 8.535156 -3.023438 C 8.335938 -3.195312 8.148438 -3.300781 7.964844 -3.339844 C 7.785156 -3.378906 7.613281 -3.378906 7.449219 -3.34375 C 7.28125 -3.308594 7.128906 -3.242188 6.988281 -3.152344 C 6.847656 -3.058594 6.714844 -2.964844 6.589844 -2.863281 C 6.3125 -2.652344 6.046875 -2.515625 5.796875 -2.453125 C 5.546875 -2.390625 5.285156 -2.367188 5.007812 -2.378906 C 4.710938 -2.386719 4.4375 -2.457031 4.183594 -2.59375 C 3.929688 -2.726562 3.710938 -2.898438 3.527344 -3.105469 C 3.339844 -3.3125 3.195312 -3.546875 3.089844 -3.808594 C 2.984375 -4.066406 2.933594 -4.328125 2.933594 -4.59375 C 2.933594 -4.863281 2.984375 -5.128906 3.089844 -5.394531 C 3.195312 -5.65625 3.339844 -5.894531 3.527344 -6.105469 C 3.710938 -6.316406 3.929688 -6.484375 4.183594 -6.617188 C 4.4375 -6.75 4.710938 -6.820312 5.007812 -6.835938 Z M 5.007812 -6.835938 "/></g></g></g><g fill="#311c73" fill-opacity="1"><g transform="translate(37.124762, 18.243327)"><g><path d="M 8.703125 -3.496094 C 9.058594 -3.496094 9.347656 -3.601562 9.570312 -3.816406 C 9.792969 -4.03125 9.90625 -4.3125 9.90625 -4.660156 C 9.894531 -5.308594 9.761719 -5.910156 9.507812 -6.472656 C 9.253906 -7.039062 8.914062 -7.53125 8.484375 -7.949219 C 8.054688 -8.371094 7.554688 -8.703125 6.984375 -8.945312 C 6.410156 -9.183594 5.804688 -9.304688 5.164062 -9.304688 C 4.515625 -9.304688 3.902344 -9.179688 3.328125 -8.933594 C 2.753906 -8.6875 2.253906 -8.351562 1.824219 -7.925781 C 1.390625 -7.5 1.050781 -7.003906 0.800781 -6.429688 C 0.550781 -5.855469 0.425781 -5.246094 0.425781 -4.59375 C 0.425781 -3.941406 0.550781 -3.332031 0.800781 -2.761719 C 1.050781 -2.191406 1.390625 -1.695312 1.824219 -1.269531 C 2.253906 -0.84375 2.753906 -0.507812 3.328125 -0.261719 C 3.902344 -0.015625 4.515625 0.109375 5.164062 0.109375 C 5.542969 0.109375 5.875 0.0820312 6.164062 0.0351562 C 6.453125 -0.015625 6.710938 -0.0820312 6.9375 -0.164062 C 7.164062 -0.246094 7.363281 -0.339844 7.535156 -0.445312 C 7.707031 -0.550781 7.859375 -0.660156 7.992188 -0.769531 C 8.136719 -0.882812 8.242188 -1.007812 8.316406 -1.144531 C 8.390625 -1.285156 8.433594 -1.425781 8.453125 -1.566406 C 8.472656 -1.707031 8.46875 -1.847656 8.433594 -1.984375 C 8.402344 -2.125 8.347656 -2.253906 8.277344 -2.371094 C 8.203125 -2.488281 8.117188 -2.59375 8.019531 -2.6875 C 7.921875 -2.777344 7.808594 -2.847656 7.683594 -2.894531 C 7.5 -2.964844 7.304688 -2.988281 7.097656 -2.964844 C 6.890625 -2.9375 6.675781 -2.839844 6.460938 -2.667969 C 6.386719 -2.609375 6.3125 -2.550781 6.234375 -2.5 C 6.152344 -2.445312 6.066406 -2.402344 5.964844 -2.367188 C 5.867188 -2.328125 5.753906 -2.300781 5.625 -2.277344 C 5.496094 -2.253906 5.34375 -2.242188 5.164062 -2.242188 C 4.730469 -2.242188 4.335938 -2.355469 3.976562 -2.582031 C 3.617188 -2.808594 3.339844 -3.113281 3.152344 -3.496094 Z M 3.082031 -5.53125 C 3.160156 -5.734375 3.269531 -5.925781 3.40625 -6.105469 C 3.546875 -6.28125 3.707031 -6.433594 3.886719 -6.5625 C 4.066406 -6.691406 4.269531 -6.792969 4.492188 -6.863281 C 4.71875 -6.9375 4.953125 -6.972656 5.207031 -6.972656 C 5.71875 -6.972656 6.167969 -6.839844 6.554688 -6.578125 C 6.9375 -6.316406 7.21875 -5.964844 7.386719 -5.53125 Z M 3.082031 -5.53125 "/></g></g></g><g fill="#311c73" fill-opacity="1"><g transform="translate(47.455964, 18.243327)"><g><path d="M 2.242188 -9.3125 C 2.519531 -9.3125 2.761719 -9.230469 2.96875 -9.066406 C 3.175781 -8.902344 3.316406 -8.695312 3.386719 -8.445312 C 3.71875 -8.714844 4.066406 -8.925781 4.433594 -9.078125 C 4.804688 -9.226562 5.183594 -9.304688 5.582031 -9.304688 C 6.160156 -9.304688 6.691406 -9.1875 7.171875 -8.949219 C 7.652344 -8.710938 8.066406 -8.386719 8.410156 -7.976562 C 8.757812 -7.5625 9.023438 -7.082031 9.214844 -6.523438 C 9.40625 -5.96875 9.503906 -5.375 9.511719 -4.742188 L 9.511719 -1.175781 C 9.511719 -1.003906 9.480469 -0.847656 9.414062 -0.703125 C 9.347656 -0.554688 9.261719 -0.429688 9.152344 -0.324219 C 9.042969 -0.21875 8.914062 -0.136719 8.761719 -0.0742188 C 8.609375 -0.0117188 8.453125 0.0195312 8.285156 0.0195312 C 8.121094 0.0195312 7.964844 -0.0117188 7.816406 -0.0742188 C 7.667969 -0.136719 7.542969 -0.21875 7.433594 -0.324219 C 7.324219 -0.429688 7.238281 -0.554688 7.171875 -0.703125 C 7.105469 -0.847656 7.070312 -1.003906 7.070312 -1.175781 L 7.070312 -4.730469 C 7.066406 -5.035156 7.019531 -5.316406 6.9375 -5.574219 C 6.855469 -5.835938 6.738281 -6.0625 6.589844 -6.253906 C 6.4375 -6.441406 6.253906 -6.59375 6.035156 -6.707031 C 5.816406 -6.820312 5.574219 -6.875 5.304688 -6.875 C 5.035156 -6.875 4.785156 -6.824219 4.5625 -6.726562 C 4.339844 -6.628906 4.144531 -6.488281 3.980469 -6.3125 C 3.816406 -6.132812 3.6875 -5.921875 3.589844 -5.679688 C 3.496094 -5.4375 3.445312 -5.167969 3.4375 -4.878906 L 3.4375 -1.214844 C 3.4375 -1.042969 3.40625 -0.886719 3.34375 -0.742188 C 3.28125 -0.597656 3.195312 -0.46875 3.082031 -0.355469 C 2.96875 -0.242188 2.839844 -0.15625 2.691406 -0.09375 C 2.542969 -0.03125 2.386719 0 2.222656 0 C 2.050781 0 1.890625 -0.03125 1.742188 -0.09375 C 1.59375 -0.15625 1.464844 -0.242188 1.351562 -0.355469 C 1.242188 -0.46875 1.152344 -0.597656 1.085938 -0.742188 C 1.019531 -0.886719 0.988281 -1.042969 0.988281 -1.214844 L 0.988281 -8.097656 C 0.988281 -8.265625 1.019531 -8.421875 1.085938 -8.570312 C 1.152344 -8.714844 1.242188 -8.847656 1.351562 -8.957031 C 1.464844 -9.070312 1.597656 -9.15625 1.753906 -9.21875 C 1.90625 -9.28125 2.070312 -9.3125 2.242188 -9.3125 Z M 2.242188 -9.3125 "/></g></g></g><g fill="#311c73" fill-opacity="1"><g transform="translate(57.866182, 18.243327)"><g><path d="M 4.296875 -11.4375 C 4.296875 -11.609375 4.265625 -11.765625 4.203125 -11.910156 C 4.140625 -12.058594 4.054688 -12.183594 3.941406 -12.292969 C 3.828125 -12.402344 3.699219 -12.484375 3.550781 -12.550781 C 3.402344 -12.613281 3.242188 -12.644531 3.070312 -12.644531 C 2.902344 -12.644531 2.742188 -12.613281 2.59375 -12.550781 C 2.445312 -12.484375 2.316406 -12.402344 2.203125 -12.292969 C 2.089844 -12.183594 2.003906 -12.058594 1.941406 -11.910156 C 1.878906 -11.765625 1.847656 -11.609375 1.847656 -11.4375 L 1.847656 -9.285156 L 1.382812 -9.285156 C 1.210938 -9.285156 1.050781 -9.253906 0.902344 -9.191406 C 0.753906 -9.128906 0.625 -9.042969 0.511719 -8.933594 C 0.402344 -8.824219 0.3125 -8.695312 0.25 -8.546875 C 0.1875 -8.402344 0.15625 -8.242188 0.15625 -8.070312 C 0.15625 -7.898438 0.1875 -7.738281 0.25 -7.589844 C 0.3125 -7.441406 0.402344 -7.3125 0.511719 -7.199219 C 0.625 -7.089844 0.753906 -7 0.902344 -6.933594 C 1.050781 -6.867188 1.210938 -6.835938 1.382812 -6.835938 L 1.847656 -6.835938 L 1.847656 -1.203125 C 1.847656 -1.035156 1.878906 -0.875 1.941406 -0.730469 C 2.003906 -0.585938 2.089844 -0.460938 2.203125 -0.351562 C 2.316406 -0.242188 2.445312 -0.15625 2.59375 -0.09375 C 2.742188 -0.03125 2.902344 0 3.070312 0 C 3.242188 0 3.402344 -0.03125 3.550781 -0.09375 C 3.699219 -0.15625 3.828125 -0.242188 3.941406 -0.351562 C 4.054688 -0.460938 4.140625 -0.585938 4.203125 -0.730469 C 4.265625 -0.875 4.296875 -1.035156 4.296875 -1.203125 L 4.296875 -6.835938 L 4.839844 -6.835938 C 5.011719 -6.835938 5.171875 -6.867188 5.324219 -6.933594 C 5.476562 -7 5.605469 -7.089844 5.714844 -7.199219 C 5.824219 -7.3125 5.90625 -7.441406 5.972656 -7.589844 C 6.035156 -7.738281 6.066406 -7.898438 6.066406 -8.070312 C 6.066406 -8.242188 6.035156 -8.402344 5.972656 -8.546875 C 5.90625 -8.695312 5.824219 -8.824219 5.714844 -8.933594 C 5.605469 -9.042969 5.476562 -9.128906 5.324219 -9.191406 C 5.171875 -9.253906 5.011719 -9.285156 4.839844 -9.285156 L 4.296875 -9.285156 Z M 4.296875 -11.4375 "/></g></g></g><g fill="#311c73" fill-opacity="1"><g transform="translate(64.058974, 18.243327)"><g><path d="M 0.425781 -4.59375 C 0.425781 -5.246094 0.550781 -5.855469 0.800781 -6.425781 C 1.050781 -6.996094 1.390625 -7.492188 1.816406 -7.921875 C 2.246094 -8.347656 2.746094 -8.6875 3.3125 -8.933594 C 3.882812 -9.179688 4.492188 -9.304688 5.136719 -9.304688 C 5.773438 -9.304688 6.378906 -9.183594 6.945312 -8.9375 C 7.511719 -8.695312 8.003906 -8.363281 8.429688 -7.945312 C 8.855469 -7.527344 9.191406 -7.035156 9.441406 -6.46875 C 9.691406 -5.902344 9.824219 -5.300781 9.835938 -4.660156 L 9.835938 -1.253906 C 9.835938 -1.082031 9.804688 -0.921875 9.738281 -0.765625 C 9.671875 -0.609375 9.585938 -0.476562 9.472656 -0.367188 C 9.359375 -0.253906 9.226562 -0.164062 9.078125 -0.0976562 C 8.925781 -0.03125 8.761719 0 8.582031 0 C 8.332031 0 8.117188 -0.0625 7.929688 -0.183594 C 7.746094 -0.304688 7.609375 -0.464844 7.515625 -0.660156 C 7.160156 -0.425781 6.785156 -0.238281 6.386719 -0.0976562 C 5.988281 0.0390625 5.570312 0.109375 5.136719 0.109375 C 4.492188 0.109375 3.882812 -0.015625 3.3125 -0.261719 C 2.746094 -0.507812 2.246094 -0.84375 1.816406 -1.269531 C 1.390625 -1.695312 1.050781 -2.191406 0.800781 -2.765625 C 0.550781 -3.339844 0.425781 -3.949219 0.425781 -4.59375 Z M 2.882812 -4.59375 C 2.882812 -4.285156 2.945312 -3.992188 3.0625 -3.71875 C 3.179688 -3.445312 3.339844 -3.207031 3.546875 -3.003906 C 3.75 -2.796875 3.988281 -2.640625 4.261719 -2.523438 C 4.535156 -2.410156 4.828125 -2.351562 5.136719 -2.351562 C 5.453125 -2.351562 5.746094 -2.410156 6.019531 -2.523438 C 6.292969 -2.640625 6.53125 -2.796875 6.730469 -3.003906 C 6.933594 -3.207031 7.089844 -3.445312 7.210938 -3.71875 C 7.328125 -3.992188 7.386719 -4.285156 7.386719 -4.59375 C 7.386719 -4.910156 7.328125 -5.203125 7.210938 -5.472656 C 7.089844 -5.742188 6.933594 -5.980469 6.730469 -6.183594 C 6.53125 -6.386719 6.292969 -6.546875 6.019531 -6.660156 C 5.746094 -6.777344 5.453125 -6.835938 5.136719 -6.835938 C 4.828125 -6.835938 4.535156 -6.777344 4.261719 -6.660156 C 3.988281 -6.546875 3.75 -6.386719 3.546875 -6.183594 C 3.339844 -5.980469 3.179688 -5.742188 3.0625 -5.472656 C 2.945312 -5.203125 2.882812 -4.910156 2.882812 -4.59375 Z M 2.882812 -4.59375 "/></g></g></g><g fill="#311c73" fill-opacity="1"><g transform="translate(74.874145, 18.243327)"><g><path d="M 3.445312 -1.214844 C 3.445312 -1.042969 3.414062 -0.886719 3.351562 -0.742188 C 3.289062 -0.597656 3.203125 -0.46875 3.089844 -0.355469 C 2.980469 -0.242188 2.847656 -0.15625 2.703125 -0.09375 C 2.554688 -0.03125 2.398438 0 2.230469 0 C 2.0625 0 1.902344 -0.03125 1.753906 -0.09375 C 1.605469 -0.15625 1.476562 -0.242188 1.363281 -0.355469 C 1.25 -0.46875 1.164062 -0.597656 1.097656 -0.742188 C 1.03125 -0.886719 0.996094 -1.042969 0.996094 -1.214844 L 0.996094 -8.097656 C 0.996094 -8.265625 1.03125 -8.421875 1.097656 -8.570312 C 1.164062 -8.714844 1.25 -8.847656 1.363281 -8.957031 C 1.476562 -9.070312 1.609375 -9.15625 1.761719 -9.21875 C 1.917969 -9.28125 2.082031 -9.3125 2.253906 -9.3125 C 2.503906 -9.3125 2.726562 -9.246094 2.921875 -9.105469 C 3.121094 -8.96875 3.265625 -8.789062 3.359375 -8.574219 C 3.726562 -8.804688 4.125 -8.980469 4.546875 -9.105469 C 4.972656 -9.230469 5.414062 -9.296875 5.875 -9.304688 L 5.945312 -9.304688 C 6.347656 -9.304688 6.660156 -9.191406 6.882812 -8.964844 C 7.109375 -8.734375 7.21875 -8.445312 7.21875 -8.089844 C 7.21875 -7.910156 7.1875 -7.75 7.121094 -7.601562 C 7.054688 -7.453125 6.964844 -7.324219 6.851562 -7.214844 C 6.734375 -7.105469 6.597656 -7.023438 6.445312 -6.964844 C 6.289062 -6.902344 6.125 -6.875 5.945312 -6.875 L 5.898438 -6.875 C 5.5625 -6.867188 5.246094 -6.796875 4.949219 -6.660156 C 4.652344 -6.527344 4.390625 -6.347656 4.167969 -6.117188 C 3.945312 -5.890625 3.769531 -5.625 3.640625 -5.324219 C 3.511719 -5.019531 3.445312 -4.699219 3.445312 -4.355469 Z M 3.445312 -1.214844 "/></g></g></g><path fill="#311c73" d="M 84.027344 5.921875 C 84.027344 5.992188 84.011719 6.054688 83.980469 6.105469 C 83.949219 6.15625 83.894531 6.199219 83.8125 6.230469 C 83.769531 6.246094 83.710938 6.257812 83.644531 6.269531 C 83.578125 6.277344 83.492188 6.28125 83.394531 6.28125 L 83.210938 6.28125 L 83.210938 5.613281 L 83.492188 5.613281 C 83.582031 5.613281 83.660156 5.617188 83.71875 5.625 C 83.777344 5.632812 83.828125 5.648438 83.867188 5.664062 C 83.925781 5.691406 83.964844 5.726562 83.988281 5.769531 C 84.015625 5.8125 84.027344 5.863281 84.027344 5.921875 Z M 83.984375 6.628906 C 84.164062 6.570312 84.300781 6.484375 84.390625 6.375 C 84.484375 6.253906 84.535156 6.105469 84.535156 5.933594 C 84.535156 5.769531 84.492188 5.628906 84.414062 5.519531 C 84.335938 5.410156 84.222656 5.328125 84.078125 5.273438 C 84 5.246094 83.910156 5.222656 83.804688 5.210938 C 83.703125 5.195312 83.589844 5.1875 83.46875 5.1875 L 82.714844 5.1875 L 82.714844 7.625 L 83.210938 7.625 L 83.210938 6.707031 L 83.464844 6.707031 L 84.109375 7.625 L 84.707031 7.625 L 83.984375 6.628906 " fill-opacity="1" fill-rule="nonzero"/><g clip-path="url(#7031294917)"><path fill="#311c73" d="M 83.652344 4.265625 C 82.472656 4.265625 81.511719 5.222656 81.511719 6.402344 C 81.511719 7.585938 82.472656 8.542969 83.652344 8.542969 C 84.832031 8.542969 85.792969 7.585938 85.792969 6.402344 C 85.792969 5.222656 84.832031 4.265625 83.652344 4.265625 Z M 83.652344 8.960938 C 83.308594 8.960938 82.972656 8.894531 82.65625 8.761719 C 82.351562 8.632812 82.078125 8.449219 81.84375 8.210938 C 81.609375 7.976562 81.425781 7.703125 81.296875 7.398438 C 81.164062 7.085938 81.09375 6.75 81.09375 6.402344 C 81.09375 6.058594 81.164062 5.722656 81.296875 5.410156 C 81.425781 5.105469 81.609375 4.832031 81.84375 4.597656 C 82.078125 4.359375 82.351562 4.175781 82.65625 4.046875 C 82.972656 3.914062 83.308594 3.847656 83.652344 3.847656 C 83.996094 3.847656 84.332031 3.914062 84.648438 4.046875 C 84.953125 4.175781 85.226562 4.359375 85.460938 4.597656 C 85.695312 4.832031 85.878906 5.105469 86.007812 5.410156 C 86.140625 5.722656 86.210938 6.058594 86.210938 6.402344 C 86.210938 6.75 86.140625 7.085938 86.007812 7.398438 C 85.878906 7.703125 85.695312 7.976562 85.460938 8.210938 C 85.226562 8.449219 84.953125 8.632812 84.648438 8.761719 C 84.332031 8.894531 83.996094 8.960938 83.652344 8.960938 " fill-opacity="1" fill-rule="nonzero"/></g><g clip-path="url(#4e496e846b)"><g clip-path="url(#cf2e699180)"><g clip-path="url(#d636381d0f)"><path fill="#5252db" d="M 41.023438 19.792969 C 40.132812 21.5 39.09375 23.117188 37.914062 24.640625 C 37.148438 25.539062 36.339844 26.402344 35.488281 27.21875 C 35.382812 27.324219 35.257812 27.386719 35.113281 27.40625 C 34.964844 27.421875 34.828125 27.390625 34.703125 27.3125 C 34.578125 27.234375 34.488281 27.125 34.441406 26.988281 C 34.390625 26.847656 34.390625 26.707031 34.441406 26.570312 C 34.753906 26.089844 35.109375 25.648438 35.507812 25.242188 C 36.566406 24.136719 37.5 22.929688 38.300781 21.628906 C 37.394531 22.125 36.457031 22.574219 35.523438 23.019531 C 33.136719 24.152344 30.625 25.128906 27.980469 25.378906 C 24.984375 25.539062 22.148438 24.945312 19.46875 23.59375 C 17.464844 22.496094 15.765625 21.042969 14.378906 19.226562 C 14.175781 19.027344 14.121094 18.796875 14.222656 18.527344 C 14.324219 18.261719 14.519531 18.121094 14.804688 18.109375 C 15.234375 18.082031 15.433594 18.515625 15.691406 18.785156 C 16.332031 19.53125 17.023438 20.226562 17.769531 20.867188 C 19.105469 21.90625 20.574219 22.695312 22.175781 23.234375 C 23.777344 23.773438 25.425781 24.03125 27.113281 24.011719 C 30.5 23.890625 33.59375 22.414062 36.746094 20.839844 C 37.429688 20.507812 38.09375 20.140625 38.773438 19.796875 C 38.894531 19.722656 39.023438 19.664062 39.160156 19.613281 C 36.695312 19.671875 34.238281 20.011719 31.769531 19.867188 C 31.605469 19.867188 31.457031 19.816406 31.328125 19.714844 C 31.199219 19.613281 31.113281 19.480469 31.078125 19.316406 C 31.042969 19.15625 31.058594 19 31.132812 18.851562 C 31.207031 18.703125 31.316406 18.59375 31.46875 18.523438 C 32.765625 18.375 34.347656 18.59375 35.824219 18.367188 C 37.320312 18.238281 38.820312 18.183594 40.320312 18.1875 C 41.285156 18.257812 41.539062 19.03125 41.023438 19.792969 Z M 41.023438 19.792969 " fill-opacity="1" fill-rule="nonzero"/></g></g></g></svg>